<svg viewBox="0 0 150 150" fill="none" xmlns="http://www.w3.org/2000/svg">
  <path fill="#FFA811"
    d="M144.802 76.2117C144.55 75.7992 144.177 75.4744 143.734 75.2819C143.291 75.0893 142.8 75.0383 142.327 75.1359C129.792 77.7141 121.622 73.95 118.017 63.9305C116.525 59.7839 113.994 56.0891 110.667 53.1989C107.34 50.3088 103.327 48.3197 99.0128 47.4217C94.6982 46.5237 90.2254 46.7468 86.0215 48.0695C81.8176 49.3923 78.023 51.7706 75 54.9773C71.9768 51.7722 68.1826 49.3954 63.9796 48.0737C59.7765 46.7519 55.3049 46.5294 50.9914 47.4273C46.6779 48.3252 42.6665 50.3136 39.34 53.2027C36.0135 56.0918 33.483 59.7852 31.9898 63.9305C28.3828 73.95 20.2054 77.7187 7.6781 75.1359C7.20565 75.0407 6.71534 75.0935 6.27396 75.287C5.83258 75.4805 5.46159 75.8054 5.21152 76.2174C4.96146 76.6294 4.84448 77.1085 4.87653 77.5893C4.90857 78.0702 5.08808 78.5295 5.3906 78.9047C20.5547 97.6383 36.0304 101.592 46.3898 101.592H46.5234C51.8123 101.615 57.0532 100.588 61.9417 98.5688C66.8302 96.5499 71.2688 93.5798 75 89.8313C78.7326 93.5804 83.1729 96.5508 88.063 98.5697C92.953 100.589 98.1955 101.616 103.486 101.592C113.918 101.548 129.391 97.7133 144.619 78.9047C144.923 78.5294 145.104 78.0692 145.137 77.5872C145.169 77.1051 145.052 76.6247 144.802 76.2117Z" />
  <path fill="#4F4B4B"
    d="M46.3852 101.592C36.0258 101.592 20.5501 97.6383 5.386 78.9047C5.08255 78.5291 4.90252 78.069 4.87051 77.5872C4.83851 77.1054 4.9561 76.6255 5.2072 76.213C5.4583 75.8006 5.83067 75.4758 6.27338 75.283C6.71609 75.0902 7.20753 75.0389 7.68053 75.136C20.2079 77.7141 28.3852 73.9501 31.9922 63.9305C33.4856 59.7857 36.0161 56.0928 39.3424 53.204C42.6687 50.3153 46.6798 48.3271 50.9929 47.4292C55.306 46.5313 59.7773 46.7537 63.98 48.0751C68.1828 49.3965 71.9768 51.7729 75.0001 54.9774C78.7591 50.9882 83.6924 48.3017 89.0828 47.3083C94.4733 46.3148 100.04 47.0662 104.974 49.4532C105.262 49.58 105.522 49.7636 105.737 49.9929C105.953 50.2221 106.12 50.4924 106.229 50.7877C106.337 51.0829 106.386 51.3971 106.37 51.7113C106.355 52.0256 106.277 52.3336 106.14 52.617C106.003 52.9003 105.811 53.1532 105.574 53.3606C105.337 53.568 105.062 53.7256 104.763 53.8241C104.464 53.9225 104.148 53.9598 103.835 53.9336C103.521 53.9075 103.216 53.8185 102.938 53.6719C98.532 51.539 93.5214 51.0061 88.7657 52.1647C84.0101 53.3232 79.806 56.101 76.8751 60.0211C76.6567 60.3122 76.3737 60.5485 76.0482 60.7112C75.7228 60.8739 75.3639 60.9587 75.0001 60.9587C74.6362 60.9587 74.2773 60.8739 73.9519 60.7112C73.6265 60.5485 73.3434 60.3122 73.1251 60.0211C70.842 56.9754 67.7773 54.6043 64.2559 53.159C60.7346 51.7138 56.8877 51.2483 53.1233 51.812C49.3589 52.3756 45.8171 53.9474 42.8735 56.3607C39.9298 58.7739 37.6941 61.9387 36.4032 65.5196C34.1485 71.7821 28.1883 81.3446 13.0501 80.5594C25.6735 93.9188 37.9454 96.9047 46.3876 96.9047H46.5047C51.5574 96.9286 56.5556 95.8615 61.158 93.7764C65.7603 91.6912 69.8583 88.6371 73.1719 84.8227C73.3999 84.5612 73.6812 84.3516 73.9969 84.2079C74.3127 84.0643 74.6555 83.9899 75.0024 83.9899C75.3493 83.9899 75.6922 84.0643 76.0079 84.2079C76.3236 84.3516 76.605 84.5612 76.8329 84.8227C80.147 88.6371 84.2454 91.6913 88.8481 93.7764C93.4508 95.8616 98.4494 96.9287 103.502 96.9047C111.996 96.8719 124.27 93.9821 136.957 80.5594C121.779 81.3446 115.863 71.7821 113.604 65.5196C113.393 64.9343 113.424 64.2894 113.688 63.7265C113.953 63.1637 114.431 62.7291 115.016 62.5184C115.601 62.3077 116.246 62.3381 116.809 62.6029C117.372 62.8677 117.807 63.3453 118.017 63.9305C121.622 73.9501 129.792 77.7188 142.327 75.136C142.8 75.0389 143.291 75.0902 143.734 75.283C144.176 75.4758 144.549 75.8006 144.8 76.213C145.051 76.6255 145.169 77.1054 145.137 77.5872C145.105 78.069 144.925 78.5291 144.621 78.9047C129.387 97.7133 113.918 101.548 103.488 101.592C98.1975 101.616 92.9546 100.589 88.0641 98.5702C83.1736 96.5512 78.733 93.5808 75.0001 89.8313C71.2681 93.5807 66.8283 96.5512 61.9385 98.5702C57.0488 100.589 51.8066 101.616 46.5165 101.592H46.3852Z" />
</svg>